# xmcd
#
# Track frame offsets:
#	150
#	14609
#	26479
#	43063
#	65828
#	81246
#	98756
#	119323
#	136721
#	149723
#	165372
#
# Disc length: 2398 seconds
#
# Revision: 1
# Processed by: cddbd v1.5.2PL0 Copyright (c) Steve Scherf et al.
# Submitted via: audiograbber 1.83.01
#
DISCID=95095c0b
DTITLE=Razorblade - Gegen die Masse
DYEAR=2011
DGENRE=Punk
TTITLE0=Explodieren
TTITLE1=Hart wie Stein
TTITLE2=Gesetz der Vergangenheit
TTITLE3=Gegen die Masse
TTITLE4=Die besten Freunde
TTITLE5=Trinkfest in Deutschland
TTITLE6=Drogen
TTITLE7=Angst
TTITLE8=Stiefeljungs
TTITLE9=Die letzten 10 Jahre
TTITLE10=Sample
EXTD=
EXTT0=
EXTT1=
EXTT2=
EXTT3=
EXTT4=
EXTT5=
EXTT6=
EXTT7=
EXTT8=
EXTT9=
EXTT10=
PLAYORDER=
